<svg width="98" height="32" viewBox="0 0 98 32" fill="none" xmlns="http://www.w3.org/2000/svg">
<rect x="0.5" y="0.5" width="97" height="31" rx="6.5" fill="white"/>
<path d="M66.5791 15.3608V17.1936H65.4064V18.3956H66.5791V22.4795C66.5791 23.8741 67.2231 24.4319 68.8433 24.4319C69.128 24.4319 69.3992 24.3987 69.6364 24.3588V23.1702C69.4331 23.1901 69.3043 23.2034 69.0806 23.2034C68.3552 23.2034 68.0366 22.8713 68.0366 22.1143V18.3956H69.6364V17.1936H68.0366V15.3608H66.5791Z" fill="black"/>
<path d="M73.7638 24.5315C75.9195 24.5315 77.2414 23.117 77.2414 20.7729C77.2414 18.442 75.9127 17.0209 73.7638 17.0209C71.608 17.0209 70.2794 18.442 70.2794 20.7729C70.2794 23.117 71.6013 24.5315 73.7638 24.5315ZM73.7638 23.2631C72.4961 23.2631 71.7843 22.3534 71.7843 20.7729C71.7843 19.2057 72.4961 18.2893 73.7638 18.2893C75.0246 18.2893 75.7432 19.2057 75.7432 20.7729C75.7432 22.3467 75.0246 23.2631 73.7638 23.2631Z" fill="black"/>
<path d="M78.3724 24.392H79.8298V20.1221C79.8298 19.1061 80.6094 18.4221 81.7144 18.4221C81.972 18.4221 82.4059 18.4686 82.5279 18.5084V17.1006C82.372 17.0608 82.094 17.0409 81.8771 17.0409C80.9145 17.0409 80.0942 17.5588 79.8841 18.2694H79.7756V17.1604H78.3724V24.392Z" fill="black"/>
<path d="M86.1468 18.2362C87.2246 18.2362 87.9296 18.9733 87.9635 20.1088H84.2351C84.3164 18.9799 85.0689 18.2362 86.1468 18.2362ZM87.9567 22.4397C87.6856 23.0041 87.0823 23.3163 86.201 23.3163C85.035 23.3163 84.2825 22.5127 84.2351 21.2444V21.1647H89.4481V20.6666C89.4481 18.3956 88.2076 17.0209 86.1535 17.0209C84.0724 17.0209 82.7505 18.4885 82.7505 20.7995C82.7505 23.1104 84.0453 24.5315 86.1603 24.5315C87.8483 24.5315 89.0278 23.7346 89.36 22.4397H87.9567Z" fill="black"/>
<path d="M57.0212 21.7215C57.1336 23.4973 58.6443 24.6329 60.8926 24.6329C63.2956 24.6329 64.7992 23.4422 64.7992 21.5426C64.7992 20.049 63.942 19.223 61.8623 18.7481L60.7451 18.4797C59.4242 18.1769 58.8902 17.7708 58.8902 17.0618C58.8902 16.1671 59.7193 15.582 60.9629 15.582C62.1433 15.582 62.9583 16.1533 63.1059 17.0687H64.6376C64.5463 15.3962 63.0427 14.2192 60.984 14.2192C58.7707 14.2192 57.2952 15.3962 57.2952 17.1651C57.2952 18.6242 58.1313 19.4915 59.9652 19.9113L61.2721 20.2211C62.6141 20.5308 63.2043 20.985 63.2043 21.7422C63.2043 22.6232 62.2768 23.2633 61.0121 23.2633C59.656 23.2633 58.7145 22.6644 58.581 21.7215H57.0212Z" fill="black"/>
<path d="M41.9232 17.0409C40.9199 17.0409 40.0522 17.5323 39.6048 18.3557H39.4963V17.1604H38.0931V26.7959H39.5506V23.2963H39.6658C40.0522 24.06 40.886 24.5116 41.9368 24.5116C43.801 24.5116 44.9873 23.0706 44.9873 20.7729C44.9873 18.4752 43.801 17.0409 41.9232 17.0409ZM41.5097 23.2299C40.2895 23.2299 39.5235 22.287 39.5235 20.7795C39.5235 19.2655 40.2895 18.3225 41.5165 18.3225C42.7502 18.3225 43.4892 19.2456 43.4892 20.7729C43.4892 22.3069 42.7502 23.2299 41.5097 23.2299Z" fill="black"/>
<path d="M50.0873 17.0409C49.084 17.0409 48.2163 17.5323 47.7689 18.3557H47.6604V17.1604H46.2571V26.7959H47.7146V23.2963H47.8299C48.2163 24.06 49.0501 24.5116 50.1008 24.5116C51.965 24.5116 53.1514 23.0706 53.1514 20.7729C53.1514 18.4752 51.965 17.0409 50.0873 17.0409ZM49.6737 23.2299C48.4535 23.2299 47.6875 22.287 47.6875 20.7795C47.6875 19.2655 48.4535 18.3225 49.6805 18.3225C50.9143 18.3225 51.6532 19.2456 51.6532 20.7729C51.6532 22.3069 50.9143 23.2299 49.6737 23.2299Z" fill="black"/>
<path d="M35.4781 24.392H37.1504L33.4897 14.4601H31.7964L28.1357 24.392H29.7518L30.6863 21.7559H34.5507L35.4781 24.392ZM32.5623 16.2634H32.6817L34.1502 20.4619H31.0867L32.5623 16.2634Z" fill="black"/>
<path d="M29.1152 6.96865V11.7599H30.8812C32.3386 11.7599 33.1826 10.88 33.1826 9.34932C33.1826 7.84189 32.3319 6.96865 30.8812 6.96865H29.1152ZM29.8745 7.646H30.7964C31.8099 7.646 32.4098 8.27686 32.4098 9.35928C32.4098 10.4583 31.82 11.0825 30.7964 11.0825H29.8745V7.646Z" fill="black"/>
<path d="M35.7674 11.8296C36.8453 11.8296 37.5062 11.1224 37.5062 9.95029C37.5062 8.78486 36.8419 8.07432 35.7674 8.07432C34.6896 8.07432 34.0252 8.78486 34.0252 9.95029C34.0252 11.1224 34.6862 11.8296 35.7674 11.8296ZM35.7674 11.1954C35.1336 11.1954 34.7777 10.7405 34.7777 9.95029C34.7777 9.1667 35.1336 8.7085 35.7674 8.7085C36.3979 8.7085 36.7572 9.1667 36.7572 9.95029C36.7572 10.7372 36.3979 11.1954 35.7674 11.1954Z" fill="black"/>
<path d="M43.1348 8.14404H42.4061L41.7485 10.9032H41.6909L40.9317 8.14404H40.2334L39.4742 10.9032H39.4199L38.759 8.14404H38.0201L39.0369 11.7599H39.786L40.5453 9.09697H40.6029L41.3655 11.7599H42.1214L43.1348 8.14404Z" fill="black"/>
<path d="M43.9741 11.7599H44.7028V9.64482C44.7028 9.08037 45.0451 8.72842 45.5841 8.72842C46.123 8.72842 46.3806 9.01729 46.3806 9.59834V11.7599H47.1093V9.41904C47.1093 8.55908 46.6551 8.07432 45.8315 8.07432C45.2756 8.07432 44.9096 8.3167 44.7299 8.71846H44.6757V8.14404H43.9741V11.7599Z" fill="black"/>
<path d="M48.257 11.7599H48.9858V6.73291H48.257V11.7599Z" fill="black"/>
<path d="M51.7265 11.8296C52.8043 11.8296 53.4653 11.1224 53.4653 9.95029C53.4653 8.78486 52.801 8.07432 51.7265 8.07432C50.6486 8.07432 49.9843 8.78486 49.9843 9.95029C49.9843 11.1224 50.6452 11.8296 51.7265 11.8296ZM51.7265 11.1954C51.0927 11.1954 50.7368 10.7405 50.7368 9.95029C50.7368 9.1667 51.0927 8.7085 51.7265 8.7085C52.3569 8.7085 52.7162 9.1667 52.7162 9.95029C52.7162 10.7372 52.3569 11.1954 51.7265 11.1954Z" fill="black"/>
<path d="M55.6366 11.2187C55.24 11.2187 54.9519 11.0294 54.9519 10.704C54.9519 10.3853 55.1824 10.2159 55.6908 10.1827L56.5924 10.1263V10.4284C56.5924 10.8767 56.1857 11.2187 55.6366 11.2187ZM55.4502 11.8196C55.9349 11.8196 56.3382 11.6138 56.5585 11.2519H56.6162V11.7599H57.3178V9.28955C57.3178 8.52588 56.7958 8.07432 55.8705 8.07432C55.0333 8.07432 54.4367 8.47275 54.3622 9.09365H55.0672C55.1485 8.83799 55.4298 8.69189 55.8366 8.69189C56.3348 8.69189 56.5924 8.90771 56.5924 9.28955V9.60166L55.5925 9.65811C54.7147 9.71123 54.2198 10.0864 54.2198 10.7372C54.2198 11.3979 54.7384 11.8196 55.4502 11.8196Z" fill="black"/>
<path d="M59.7908 11.8196C60.2992 11.8196 60.7296 11.5839 60.95 11.1888H61.0076V11.7599H61.7058V6.73291H60.9771V8.71846H60.9228C60.7229 8.32002 60.2958 8.08428 59.7908 8.08428C58.8586 8.08428 58.2587 8.80811 58.2587 9.95029C58.2587 11.0958 58.8519 11.8196 59.7908 11.8196ZM59.9975 8.7251C60.6076 8.7251 60.9906 9.1999 60.9906 9.95361C60.9906 10.7106 60.611 11.1788 59.9975 11.1788C59.3806 11.1788 59.0112 10.7173 59.0112 9.95029C59.0112 9.18994 59.384 8.7251 59.9975 8.7251Z" fill="black"/>
<path d="M66.4314 11.8296C67.5093 11.8296 68.1702 11.1224 68.1702 9.95029C68.1702 8.78486 67.5059 8.07432 66.4314 8.07432C65.3536 8.07432 64.6892 8.78486 64.6892 9.95029C64.6892 11.1224 65.3502 11.8296 66.4314 11.8296ZM66.4314 11.1954C65.7976 11.1954 65.4417 10.7405 65.4417 9.95029C65.4417 9.1667 65.7976 8.7085 66.4314 8.7085C67.0619 8.7085 67.4212 9.1667 67.4212 9.95029C67.4212 10.7372 67.0619 11.1954 66.4314 11.1954Z" fill="black"/>
<path d="M69.1349 11.7599H69.8636V9.64482C69.8636 9.08037 70.206 8.72842 70.7449 8.72842C71.2838 8.72842 71.5414 9.01729 71.5414 9.59834V11.7599H72.2702V9.41904C72.2702 8.55908 71.816 8.07432 70.9923 8.07432C70.4365 8.07432 70.0704 8.3167 69.8907 8.71846H69.8365V8.14404H69.1349V11.7599Z" fill="black"/>
<path d="M75.6264 7.24424V8.16064H75.0401V8.76162H75.6264V10.8036C75.6264 11.5009 75.9484 11.7798 76.7585 11.7798C76.9009 11.7798 77.0365 11.7632 77.1551 11.7433V11.1489C77.0534 11.1589 76.989 11.1655 76.8772 11.1655C76.5145 11.1655 76.3552 10.9995 76.3552 10.621V8.76162H77.1551V8.16064H76.3552V7.24424H75.6264Z" fill="black"/>
<path d="M78.1333 11.7599H78.862V9.64814C78.862 9.10029 79.1942 8.73174 79.7908 8.73174C80.306 8.73174 80.5805 9.02393 80.5805 9.60166V11.7599H81.3092V9.42568C81.3092 8.56572 80.8245 8.07764 80.0382 8.07764C79.4823 8.07764 79.0925 8.32002 78.9129 8.7251H78.8553V6.73291H78.1333V11.7599Z" fill="black"/>
<path d="M83.9381 8.68193C84.4771 8.68193 84.8296 9.05049 84.8465 9.61826H82.9823C83.023 9.05381 83.3992 8.68193 83.9381 8.68193ZM84.8431 10.7837C84.7075 11.0659 84.4059 11.222 83.9652 11.222C83.3823 11.222 83.006 10.8202 82.9823 10.186V10.1462H85.5888V9.89717C85.5888 8.76162 84.9685 8.07432 83.9415 8.07432C82.9009 8.07432 82.24 8.80811 82.24 9.96357C82.24 11.119 82.8874 11.8296 83.9449 11.8296C84.7889 11.8296 85.3787 11.4312 85.5447 10.7837H84.8431Z" fill="black"/>
<path d="M20.228 16.2406C20.2457 14.8958 20.983 13.6233 22.1526 12.919C21.4147 11.8867 20.1789 11.2322 18.8931 11.1928C17.5217 11.0518 16.1922 11.9967 15.4934 11.9967C14.781 11.9967 13.7051 11.2068 12.5465 11.2302C11.0362 11.278 9.62833 12.1191 8.89358 13.4125C7.31414 16.0912 8.49226 20.028 10.0052 22.1933C10.7622 23.2536 11.6469 24.438 12.8045 24.396C13.9372 24.3499 14.3603 23.6884 15.7276 23.6884C17.0823 23.6884 17.4792 24.396 18.6603 24.3693C19.8758 24.3499 20.6416 23.3043 21.372 22.2339C21.9159 21.4785 22.3344 20.6435 22.6121 19.7599C21.1836 19.1681 20.2297 17.7599 20.228 16.2406Z" fill="black"/>
<path d="M17.9972 9.76881C18.6599 8.98945 18.9864 7.9877 18.9074 6.97632C17.8948 7.08049 16.9595 7.55454 16.2878 8.30401C15.631 9.03627 15.2892 10.0204 15.3538 10.9931C16.3667 11.0033 17.3625 10.5421 17.9972 9.76881Z" fill="black"/>
<rect x="0.5" y="0.5" width="97" height="31" rx="6.5" stroke="black"/>
</svg>
